<svg xmlns="http://www.w3.org/2000/svg" width="219.676" height="288.439" viewBox="0 0 219.676 288.439"><path d="M5840.333-8608.373v-288.215h16.894c0,5.941.111,11.836-.056,17.713a3.863,3.863,0,0,0,2.487,4.08c12.794,6.564,25.95,11.846,40.641,11.791,13.227-.047,25.095-4.789,36.583-10.795,10.3-5.393,20.4-11.223,30.989-15.937,24-10.674,47.9-8.748,71.282,2.26,6.518,3.059,12.719,6.807,18.968,10.4a4.132,4.132,0,0,1,1.808,2.994q.141,75.885.079,151.787c0,.418-.079.855-.158,1.7-3.384-2.25-6.5-4.285-9.576-6.377a113.018,113.018,0,0,0-32.979-15.389c-16.564-4.641-32.366-2.148-47.489,5.412-10.9,5.438-21.5,11.49-32.417,16.893-12.71,6.277-26.2,9.67-40.478,9.113-12.942-.521-25.049-4.381-36.777-9.605-.833-.371-1.674-.717-2.906-1.256v113.426Zm17.02-248.4c-.042.68-.121,1.2-.121,1.738q-.007,56.039-.047,112.076a2.859,2.859,0,0,0,1.888,2.994c3.134,1.471,6.2,3.115,9.34,4.576,21.315,9.977,42.528,10.264,63.574-.8,8.377-4.406,16.68-8.953,25.063-13.361,13.435-7.066,27.5-11.92,42.9-12.021,12.506-.094,24.3,3.059,35.77,7.727,2.394.977,4.765,2.008,7.4,3.115v-3.729q0-49.846-.015-99.691c0-4.2-.177-8.387-.273-12.59-4.018-2.018-7.978-4.166-12.064-6.035-21.046-9.641-41.915-9.482-62.523,1.377-9.126,4.789-18.173,9.744-27.321,14.5-22.292,11.586-45.355,14.375-69.325,5.7C5866.864-8852.906,5862.22-8854.85,5857.353-8856.775Z" transform="translate(-5840.333 8896.813)" fill="#ef6239"/></svg>