<svg xmlns="http://www.w3.org/2000/svg" width="247.42" height="288.439" viewBox="0 0 247.42 288.439"><g transform="translate(0 0)"><path d="M3847.756-8773.437v21.078a123.66,123.66,0,0,1,69.309,28.814c5.444-5.412,10.674-10.777,16.081-15.955a10.237,10.237,0,0,1,17.2,4.555,10.017,10.017,0,0,1-2.895,10.293c-5.132,5.18-10.26,10.348-15.595,15.713,23.126,28.758,32.892,61.441,27.614,98.1-3.893,27.066-15.917,50.283-35.294,69.613-37.636,37.5-94.808,46.285-143.354,22.092-45.6-22.742-72.992-74.875-66.4-125.186,7.657-58.494,54.76-103.318,112.457-108.182v-20.779c-.99-.037-2.02-.141-3.047-.15-5.9,0-11.809.121-17.705-.037a10.24,10.24,0,0,1-9.977-10.2,10.071,10.071,0,0,1,9.822-10.293q31.395-.167,62.786,0a10.1,10.1,0,0,1,9.808,10.33,10.217,10.217,0,0,1-9.986,10.162C3861.739-8773.309,3854.89-8773.437,3847.756-8773.437ZM3837.041-8526.2a103.071,103.071,0,0,0,103.376-103.252c-.009-56.4-46.22-102.713-102.564-102.77-57.182-.057-103.482,45.885-103.541,102.76S3780.347-8526.236,3837.041-8526.2Z" transform="translate(-3713.449 8794.043)" fill="#ef6239"/><path d="M4280.687-8289.636c0-9.977-.019-19.953,0-29.92.019-6.779,4.3-11.445,10.4-11.391,5.946.057,10.19,4.686,10.2,11.279.023,17.8.056,35.6-.056,53.406a7.044,7.044,0,0,0,2.375,5.568q12.866,12.595,25.541,25.412a10.039,10.039,0,0,1,2.056,11.846c-1.893,3.867-5.988,6.424-10.256,5.652a12.881,12.881,0,0,1-6.448-3.123c-10.312-10.014-20.4-20.252-30.566-30.4a10.811,10.811,0,0,1-3.259-8.1C4280.715-8269.487,4280.687-8279.565,4280.687-8289.636Z" transform="translate(-4167.076 8423.692)" fill="#ef6239"/></g></svg>