<svg xmlns="http://www.w3.org/2000/svg" width="219.776" height="288.455" viewBox="0 0 219.776 288.455"><g transform="translate(0 0)"><path d="M7551.337-8608.406a57.258,57.258,0,0,1-6.648-2.146c-9.855-4.584-15.15-12.432-15.268-23.291-.193-18.3-.059-36.6-.059-54.895q0-90.39,0-180.76c0-16.682,10.586-27.3,27.211-27.3q57.138,0,114.3-.064a12.732,12.732,0,0,1,9.725,4.072q32.268,32.426,64.7,64.7a12.206,12.206,0,0,1,3.793,9.27q-.1,91.228-.041,182.443c0,15.221-6.812,23.969-21.488,27.68a1.885,1.885,0,0,0-.488.287Zm113.221-271.506h-3.186q-52.518,0-105.037.01c-6.937,0-10.07,3.18-10.07,10.2v234.3c0,6.936,3.186,10.1,10.172,10.1q82.8.012,165.59,0c6.945,0,10.121-3.18,10.121-10.154v-176.844h-3.482c-12.951,0-25.908.074-38.859-.029a25.012,25.012,0,0,1-24.783-21.125,59.588,59.588,0,0,1-.447-9.529C7664.528-8855.18,7664.558-8867.369,7664.558-8879.912Zm16.9,12.711c0,9.7-.033,19.32.008,28.943.023,5.578,3.549,9.02,9.215,9.037,8.527.029,17.053.01,25.578.01h3.217C7706.737-8841.93,7694.185-8854.482,7681.456-8867.2Z" transform="translate(-7529.316 8896.861)" fill="#ef6239"/><path d="M7877.946-8198.262c-16.7,0-33.395.027-50.088-.01-6.844-.02-11.074-6.342-8.154-12.143,1.688-3.357,4.561-4.77,8.266-4.762q22.649.044,45.3.02c18.285,0,36.578-.037,54.861.01,6.541.018,10.768,6.08,8.215,11.752-1.635,3.625-4.648,5.16-8.6,5.15Q7902.843-8198.3,7877.946-8198.262Z" transform="translate(-7768.045 8334.635)" fill="#ef6239"/><path d="M7877.66-8005.4c-16.6,0-33.207.027-49.8-.01-6.746-.008-11.045-6.053-8.4-11.816,1.6-3.5,4.5-5.086,8.35-5.078,9.855.029,19.7.01,29.543.01q35.174,0,70.348.01c6.793,0,11.135,5.877,8.592,11.688-1.594,3.654-4.588,5.217-8.549,5.217Q7902.71-8005.427,7877.66-8005.4Z" transform="translate(-7767.958 8175.565)" fill="#ef6239"/><path d="M7878.122-7829.479c16.592,0,33.2-.027,49.8.014,6.844.02,11.041,6.332,8.111,12.148-1.687,3.361-4.574,4.746-8.279,4.746q-23.068-.035-46.141-.014-26.868,0-53.74-.01c-6.756-.014-11.08-6.02-8.453-11.785,1.643-3.625,4.664-5.127,8.609-5.117C7844.728-7829.455,7861.423-7829.479,7878.122-7829.479Z" transform="translate(-7767.942 8016.541)" fill="#ef6239"/><path d="M7861.176-7636.562q16.31,0,32.631,0c5.723.01,9.559,3.385,9.586,8.391.033,5.031-3.812,8.5-9.484,8.5q-32.766.026-65.535,0c-5.645,0-9.5-3.512-9.447-8.527.043-4.9,3.863-8.354,9.34-8.354Q7844.725-7636.582,7861.176-7636.562Z" transform="translate(-7768.174 7857.422)" fill="#ef6239"/></g></svg>